<svg id="Layer_2" data-name="Layer 2" xmlns="http://www.w3.org/2000/svg" width="425" height="275" viewBox="0 0 425 275"><defs><style>.cls-1{fill:#ffdd30;}.cls-2{fill:#231f20;}</style></defs><title>logo</title><g id="_Group_" data-name="&lt;Group&gt;"><path id="_Compound_Path_" data-name="&lt;Compound Path&gt;" class="cls-1" d="M211.87,268.81a2.5,2.5,0,0,1-.76-.12L7.5,204.11a2.5,2.5,0,0,1-1.75-2.38V72.57A2.5,2.5,0,0,1,7.5,70.19L211.11,5.61a2.5,2.5,0,0,1,1.51,0L416.24,70.19A2.5,2.5,0,0,1,418,72.57V201.73a2.5,2.5,0,0,1-1.75,2.38L212.63,268.69A2.5,2.5,0,0,1,211.87,268.81Z"/></g><path class="cls-2" d="M167.26,180.75h1.23l1.79-7.82h-2.56l-.34,1.46h-.77l.5-2.16h7.47l-.5,2.16h-.77l.34-1.46h-2.56l-1.79,7.82h1.37l-.17.7h-3.4Z"/><path class="cls-2" d="M177.67,171.84h-1.12l.15-.64h1.85l-1.34,5.67a2.58,2.58,0,0,1,2.06-1.41A1.59,1.59,0,0,1,181,177a3.59,3.59,0,0,1-.14.92l-.56,2.07a2.56,2.56,0,0,0-.08.56.43.43,0,0,0,.43.46c.31,0,.55-.28.8-.92l.43.14c-.27.83-.67,1.32-1.32,1.32a1,1,0,0,1-1.08-1,2.89,2.89,0,0,1,.1-.63l.56-2.1a2.88,2.88,0,0,0,.11-.8,1,1,0,0,0-1.06-.92c-.87,0-2,.92-2.37,2.56l-.64,2.8h-.73Z"/><path class="cls-2" d="M184.5,180.54a2.85,2.85,0,0,1,.11-.63l1-3.7h-1.18l.17-.64h1.92L185.33,180a2.62,2.62,0,0,0-.1.56.43.43,0,0,0,.43.46c.31,0,.55-.28.81-.92l.43.14c-.28.83-.7,1.32-1.34,1.32A1,1,0,0,1,184.5,180.54Zm1.29-6.88a.6.6,0,1,1,.6.62A.61.61,0,0,1,185.79,173.66Z"/><path class="cls-2" d="M189.74,180.79a1,1,0,0,1-.32-.69.63.63,0,0,1,.59-.66.49.49,0,0,1,.52.5.66.66,0,0,1-.22.49,1,1,0,0,0,.25.2,2.67,2.67,0,0,0,1.27.31c.7,0,1.25-.38,1.25-1s-.56-.9-1.19-1.21c-.9-.45-1.65-.84-1.65-1.69s.81-1.62,2-1.62a2.51,2.51,0,0,1,1.75.62.94.94,0,0,1,.32.69.59.59,0,0,1-.56.64.5.5,0,0,1-.53-.5.82.82,0,0,1,.18-.49.74.74,0,0,0-.24-.15,2.5,2.5,0,0,0-1-.18c-.78,0-1.25.41-1.25.9s.53.8,1.23,1.15c.85.42,1.61.85,1.61,1.75a1.82,1.82,0,0,1-2,1.7A3,3,0,0,1,189.74,180.79Z"/><path class="cls-2" d="M201.51,177.55a5.46,5.46,0,0,1,5.18-5.49c2.28,0,3.31,1.44,3.31,2.21,0,.6-.36.92-.73.92a.57.57,0,0,1-.64-.57.8.8,0,0,1,.46-.66c-.14-.5-1-1.19-2.44-1.19-2.61,0-4.3,2.51-4.3,4.68s1.3,3.43,3.19,3.43a4.35,4.35,0,0,0,3.05-1.32l.45.5a5,5,0,0,1-3.59,1.54A3.82,3.82,0,0,1,201.51,177.55Z"/><path class="cls-2" d="M212.66,178.7a3.36,3.36,0,0,0,0,.38,1.85,1.85,0,0,0,2,1.83,3.67,3.67,0,0,0,1.93-.55l-.17.76a3.8,3.8,0,0,1-1.89.43,2.44,2.44,0,0,1-2.59-2.47,3.55,3.55,0,0,1,3.29-3.64,2,2,0,0,1,2.14,2.09,3.38,3.38,0,0,1-.24,1.16Zm.14-.62h3.75a2.21,2.21,0,0,0,.11-.67c0-.66-.45-1.3-1.51-1.3A2.66,2.66,0,0,0,212.8,178.08Z"/><path class="cls-2" d="M223.84,180.54a3,3,0,0,1,.11-.64l.6-2.09a3,3,0,0,0,.14-.8.94.94,0,0,0-1-.92c-.87,0-2,.91-2.4,2.56l-.7,2.8h-.73l1.32-5.24H220l.17-.64H222l-.36,1.41a2.68,2.68,0,0,1,2.13-1.53,1.54,1.54,0,0,1,1.65,1.53,3.69,3.69,0,0,1-.17.92l-.6,2.06a2.74,2.74,0,0,0-.1.57.43.43,0,0,0,.43.46c.31,0,.55-.28.81-.92l.43.14c-.28.83-.7,1.32-1.34,1.32A1,1,0,0,1,223.84,180.54Z"/><path class="cls-2" d="M230.67,176.21l-.92,3.77a2.18,2.18,0,0,0-.07.5.46.46,0,0,0,.49.43,2.69,2.69,0,0,0,1.27-.59l.31.43a3.07,3.07,0,0,1-1.74.8,1,1,0,0,1-1.11-1,2.92,2.92,0,0,1,.1-.62l.94-3.75h-1l.17-.64h1l.36-1.44.78-.22-.42,1.67h1.82l-.17.64Z"/><path class="cls-2" d="M236.94,175.56l-1,3.81a2.86,2.86,0,0,0-.1.71.88.88,0,0,0,1,.84c.87,0,2-.94,2.4-2.56l.7-2.8h.73L239.54,180a2.9,2.9,0,0,0-.1.56.43.43,0,0,0,.43.46c.31,0,.55-.28.81-.92l.43.14c-.28.83-.7,1.32-1.34,1.32a.94.94,0,0,1-1-1,2.47,2.47,0,0,1,.07-.5,2.67,2.67,0,0,1-2.13,1.53,1.46,1.46,0,0,1-1.61-1.44,3.25,3.25,0,0,1,.13-.8l.81-3.11h-1.12l.17-.64Z"/><path class="cls-2" d="M244.88,176.21h-1.12l.17-.64h1.81l-.39,1.6c.78-1.08,1.44-1.71,2-1.71s.71.27.71.62a.68.68,0,0,1-.66.69.61.61,0,0,1-.62-.48,4.44,4.44,0,0,0-1.83,2.59l-.64,2.58h-.73Z"/><path class="cls-2" d="M248.72,183.55a.61.61,0,0,1,.59-.63c.35,0,.56.25.59.64H250c.34,0,1.09-.53,2.4-2.13l-1.05-5.23h-1.09l.15-.64H252l.94,5.17a13.82,13.82,0,0,0,2.44-4,.75.75,0,0,1-.57-.7.62.62,0,0,1,.63-.6c.38,0,.69.28.69.83,0,1-.85,2.4-3,5.14-1.76,2.26-2.69,2.83-3.52,2.83A.8.8,0,0,1,248.72,183.55Z"/><path class="cls-2" d="M172.22,100.16h1.16l1.81-7.82h-1.3l.17-.7h6.61l-.49,2.09h-.77l.32-1.39H176l-.8,3.46h3.05l-.15.7H175l-.85,3.66h3.74l.32-1.39H179l-.48,2.09h-6.49Z"/><path class="cls-2" d="M182.14,100.21a1,1,0,0,1-.32-.69.63.63,0,0,1,.59-.66.49.49,0,0,1,.52.5.67.67,0,0,1-.22.49,1,1,0,0,0,.25.2,2.67,2.67,0,0,0,1.27.31c.7,0,1.25-.38,1.25-1s-.56-.9-1.19-1.2c-.9-.45-1.65-.84-1.65-1.7s.81-1.62,2-1.62a2.51,2.51,0,0,1,1.75.62.94.94,0,0,1,.32.69.59.59,0,0,1-.56.64.5.5,0,0,1-.53-.5.82.82,0,0,1,.18-.49.71.71,0,0,0-.24-.15,2.49,2.49,0,0,0-1-.18c-.78,0-1.25.41-1.25.9s.53.8,1.23,1.15c.85.42,1.61.85,1.61,1.75a1.82,1.82,0,0,1-2,1.69A3,3,0,0,1,182.14,100.21Z"/><path class="cls-2" d="M191.13,95.63l-.92,3.77a2.18,2.18,0,0,0-.07.5.46.46,0,0,0,.49.43,2.69,2.69,0,0,0,1.27-.59l.31.43a3.07,3.07,0,0,1-1.74.8,1,1,0,0,1-1.11-1,2.91,2.91,0,0,1,.1-.62l.94-3.75h-1l.17-.64h1l.36-1.44.78-.22L191.28,95h1.82l-.17.64Z"/><path class="cls-2" d="M194.76,98.54a3.49,3.49,0,0,1,3.15-3.67,1.81,1.81,0,0,1,1.93,1.53l.35-1.48h.73l-1.09,4.48a2.93,2.93,0,0,0-.1.56.43.43,0,0,0,.43.46c.31,0,.55-.28.81-.92l.43.14c-.28.83-.7,1.32-1.34,1.32a1,1,0,0,1-1-.94v-.24a2.71,2.71,0,0,1-2.1,1.2A2.18,2.18,0,0,1,194.76,98.54Zm4.8-1.25a1.56,1.56,0,0,0-1.62-1.77c-1.41,0-2.4,1.47-2.4,3,0,1.09.53,1.79,1.54,1.79C198.61,100.32,199.56,98.61,199.56,97.29Z"/><path class="cls-2" d="M206,91.25h-1.12l.15-.64h1.85l-1.29,5.5a2.62,2.62,0,0,1,2.1-1.25A2.28,2.28,0,0,1,210,97.35a3.46,3.46,0,0,1-3.14,3.63,2,2,0,0,1-2-1.5l-.34,1.39h-.73Zm3.18,6.18c0-1.16-.6-1.91-1.61-1.91-1.4,0-2.51,1.67-2.51,3a1.65,1.65,0,0,0,1.75,1.75C208.21,100.32,209.19,98.89,209.19,97.43Z"/><path class="cls-2" d="M212.65,100a3.68,3.68,0,0,1,.1-.59l1.89-8.11h-1.11l.15-.64h1.84l-2,8.75a4.63,4.63,0,0,0-.1.59.43.43,0,0,0,.43.46c.31,0,.55-.28.81-.92l.43.14c-.28.83-.7,1.32-1.35,1.32A1,1,0,0,1,212.65,100Z"/><path class="cls-2" d="M217.77,100a2.88,2.88,0,0,1,.11-.63l1-3.7h-1.18l.17-.64h1.92l-1.23,4.41a2.63,2.63,0,0,0-.1.56.43.43,0,0,0,.43.46c.31,0,.55-.28.81-.92l.43.14c-.28.83-.7,1.32-1.34,1.32A1,1,0,0,1,217.77,100Zm1.29-6.88a.6.6,0,1,1,.6.62A.61.61,0,0,1,219.06,93.08Z"/><path class="cls-2" d="M223,100.21a1,1,0,0,1-.32-.69.63.63,0,0,1,.59-.66.49.49,0,0,1,.52.5.67.67,0,0,1-.22.49,1,1,0,0,0,.25.2,2.67,2.67,0,0,0,1.27.31c.7,0,1.25-.38,1.25-1s-.56-.9-1.19-1.2c-.9-.45-1.65-.84-1.65-1.7s.81-1.62,2-1.62a2.52,2.52,0,0,1,1.75.62.94.94,0,0,1,.32.69.59.59,0,0,1-.56.64.5.5,0,0,1-.53-.5.82.82,0,0,1,.18-.49.72.72,0,0,0-.24-.15,2.49,2.49,0,0,0-1-.18c-.79,0-1.25.41-1.25.9s.53.8,1.23,1.15c.85.42,1.61.85,1.61,1.75a1.82,1.82,0,0,1-2,1.69A3,3,0,0,1,223,100.21Z"/><path class="cls-2" d="M232.11,91.25H231l.15-.64H233l-1.34,5.67a2.57,2.57,0,0,1,2.06-1.41,1.6,1.6,0,0,1,1.71,1.53,3.62,3.62,0,0,1-.14.92l-.56,2.07a2.6,2.6,0,0,0-.08.56.43.43,0,0,0,.43.46c.31,0,.55-.28.8-.92l.43.14c-.27.83-.67,1.32-1.32,1.32a1,1,0,0,1-1.08-1,2.92,2.92,0,0,1,.1-.63l.56-2.1a2.88,2.88,0,0,0,.11-.8,1,1,0,0,0-1.06-.92c-.87,0-2,.92-2.37,2.56l-.64,2.8h-.73Z"/><path class="cls-2" d="M239.43,98.12a3.5,3.5,0,0,0,0,.38,1.85,1.85,0,0,0,2,1.83,3.67,3.67,0,0,0,1.93-.55l-.17.76a3.81,3.81,0,0,1-1.89.43,2.44,2.44,0,0,1-2.59-2.46A3.55,3.55,0,0,1,242,94.87,2,2,0,0,1,244.12,97a3.37,3.37,0,0,1-.24,1.16Zm.14-.62h3.75a2.2,2.2,0,0,0,.11-.67c0-.66-.45-1.3-1.51-1.3A2.66,2.66,0,0,0,239.57,97.5Z"/><path class="cls-2" d="M249.78,94.87a1.88,1.88,0,0,1,2,1.53L253,91.25h-1.12l.15-.64h1.85l-2.06,8.78a3,3,0,0,0-.1.56.41.41,0,0,0,.42.46c.32,0,.56-.28.83-.92l.43.14c-.28.83-.7,1.32-1.34,1.32a1,1,0,0,1-1-1,1,1,0,0,1,0-.2,2.7,2.7,0,0,1-2.1,1.2,2.23,2.23,0,0,1-2.23-2.45A3.45,3.45,0,0,1,249.78,94.87Zm1.74,2.45a1.61,1.61,0,0,0-1.68-1.79c-1.41,0-2.37,1.46-2.37,3a1.59,1.59,0,0,0,1.6,1.81C250.55,100.32,251.52,98.69,251.52,97.32Z"/><path class="cls-2" d="M85.45,156.47h-6V117.39h6Z"/><path class="cls-2" d="M122.07,117.39v39.08h-6l-12-25.41v25.41H98V117.39h6l12,25.41V117.39Z"/><path class="cls-2" d="M145,156.47c-12,0-12-12-12-12v-15s0-12,12-12,12,12,12,12h-6s0-6-6-6-6,6-6,6v15s0,6,6,6,6-6,6-6v-3h-6v-6h12v21.06h-3L151,151S149.88,156.47,145,156.47Z"/><path class="cls-2" d="M189.47,117.39v6h-15v9h12v6h-12v12h15v6H168.41V117.39Z"/><path class="cls-2" d="M224.08,117.39v39.08h-6l-12-25.41v25.41h-6V117.39h6l12,25.41V117.39Z"/><path class="cls-2" d="M258.7,117.44v27s0,12-12,12-12-12-12-12v-27h6v27s0,6,6,6,6-6,6-6v-27Z"/><path class="cls-2" d="M276.72,156.47h-6V117.39h6Z"/><path class="cls-2" d="M309.61,117.44v6h-9v33h-6v-33h-9v-6Z"/><path class="cls-2" d="M332.1,139.76v16.71h-6V139.76l-10.76-22.37H322l7,15.62,7.09-15.62h6.64Z"/><path class="cls-2" d="M123.11,199.55a3.43,3.43,0,0,1-2.13-4.47l1.58-4.45a3.42,3.42,0,0,1,4.46-2.11,3.24,3.24,0,0,1,2.21,4.2l-1.28-.45a1.93,1.93,0,0,0-1.37-2.49,2.1,2.1,0,0,0-2.74,1.3l-1.58,4.45a2.11,2.11,0,0,0,1.3,2.75A2.06,2.06,0,0,0,126.3,197l.41-1.15-1.76-.62.45-1.26,3,1.08-2,5.71-.5-.18-.57-1.77A2.14,2.14,0,0,1,123.11,199.55Z"/><path class="cls-2" d="M139.66,192.55l-.38,1.28-4.52-1.35-1,3.24,3.6,1.08-.38,1.28-3.6-1.08-1.23,4.13,4.52,1.35-.38,1.28L130.49,202l3.35-11.22Z"/><path class="cls-2" d="M149.76,195.13l-2.81,11.36-1.4-.35-1.94-9.69-2.15,8.68-1.32-.33L143,193.45l1.4.35,2,9.57,2.12-8.56Z"/><path class="cls-2" d="M159.83,197.23l-.26,1.31-4.63-.93-.67,3.32,3.69.74-.26,1.31-3.69-.74-.85,4.22,4.63.93-.26,1.31-6-1.2L153.87,196Z"/><path class="cls-2" d="M166.23,205.32c.5,1.42,1.32,3.62,1.87,5.15l-1.53-.24-1.83-5.06-1.29-.21-.74,4.65-1.34-.21,1.85-11.54,3.46.55s3.46.55,2.91,4A3.43,3.43,0,0,1,166.23,205.32Zm-2.56-1.68,2.24.34a2.07,2.07,0,0,0,2.34-1.8,2.1,2.1,0,0,0-1.78-2.46l-2.12-.34Z"/><path class="cls-2" d="M179.32,211.89l-1.35-.16-.29-1.94-4.26-.51-.72,1.82-1.35-.16,4.48-11.25,1.77.21Zm-1.85-3.47-.78-7.18-.27,0L174,208Z"/><path class="cls-2" d="M185.49,200.7,184.59,211l4,.34-.12,1.33-5.3-.46,1-11.67Z"/><path class="cls-2" d="M203.47,205a1.93,1.93,0,0,0-2.06-2,2.1,2.1,0,0,0-2.22,2.07L199,209.8A2.11,2.11,0,0,0,201.1,212a1.93,1.93,0,0,0,2.19-1.81l1.36,0a3.25,3.25,0,0,1-3.59,3.11,3.43,3.43,0,0,1-3.38-3.62l.16-4.72a3.42,3.42,0,0,1,3.62-3.36,3.22,3.22,0,0,1,3.37,3.34Z"/><path class="cls-2" d="M214.89,205.29l0,4.72a3.5,3.5,0,0,1-7,.06l0-4.72a3.5,3.5,0,0,1,7-.06Zm-1.36,0a2.15,2.15,0,1,0-4.29,0l0,4.72a2.15,2.15,0,1,0,4.29,0Z"/><path class="cls-2" d="M225.59,201.52l.42,11.7-1.44.05L220,204.49l.32,8.94-1.36,0-.42-11.7,1.44-.05,4.52,8.67-.31-8.82Z"/><path class="cls-2" d="M235.34,200.92l.09,1.33-2.83.19.71,10.32-1.35.09-.71-10.32-2.81.19-.09-1.33Z"/><path class="cls-2" d="M243.27,207.08c.85,1.24,2.21,3.15,3.14,4.49l-1.54.16-3.08-4.41-1.3.13.49,4.68-1.35.14-1.21-11.63,3.48-.36s3.48-.36,3.84,3.1A3.43,3.43,0,0,1,243.27,207.08Zm-2.91-1,2.25-.25a2.07,2.07,0,0,0,1.79-2.34,2.1,2.1,0,0,0-2.36-1.91l-2.13.22Z"/><path class="cls-2" d="M257.26,210.1l-1.34.19-.77-1.8-4.25.6-.23,1.94-1.34.19,1.44-12,1.77-.25Zm-2.68-2.88-2.6-6.74-.27,0-.63,7.2Z"/><path class="cls-2" d="M264.22,200.27a1.93,1.93,0,0,0-2.43-1.48,2.1,2.1,0,0,0-1.73,2.49l.84,4.64a2.11,2.11,0,0,0,2.5,1.75,1.93,1.93,0,0,0,1.76-2.24l1.33-.24a3.25,3.25,0,0,1-2.86,3.79,3.43,3.43,0,0,1-4.07-2.82l-.84-4.64a3.42,3.42,0,0,1,2.83-4.05,3.22,3.22,0,0,1,4,2.56Z"/><path class="cls-2" d="M274,194.92l.29,1.31-2.77.61,2.23,10.11-1.32.29-2.23-10.11-2.75.61-.29-1.31Z"/><path class="cls-2" d="M279.92,205.5,277,194.15l1.31-.33,2.87,11.34Z"/><path class="cls-2" d="M289.16,190.76,292.48,202l-1.38.41L284.53,195l2.54,8.58-1.3.38-3.32-11.23,1.38-.41,6.54,7.27-2.5-8.46Z"/><path class="cls-2" d="M299.43,199.65a3.43,3.43,0,0,1-4.47-2.13l-1.57-4.45a3.42,3.42,0,0,1,2.14-4.45,3.24,3.24,0,0,1,4.36,1.88l-1.28.45a1.93,1.93,0,0,0-2.63-1.07,2.1,2.1,0,0,0-1.31,2.74l1.57,4.45a2.11,2.11,0,0,0,2.74,1.32,2.06,2.06,0,0,0,1.3-2.75l-.41-1.15-1.76.62-.45-1.26,3-1.08,2,5.71-.5.18-1.56-1A2.14,2.14,0,0,1,299.43,199.65Z"/><path class="cls-2" d="M145.07,73.15l1.19,4.57a3.43,3.43,0,0,1-2.5,4.27l-3.39.88-3-11.32,3.39-.88S144.19,69.78,145.07,73.15Zm-1.31.34A2.1,2.1,0,0,0,141.14,72l-2.08.54,2.28,8.73,2.08-.54a2.11,2.11,0,0,0,1.53-2.63Z"/><path class="cls-2" d="M154.17,67.56l.28,1.31-4.62,1,.71,3.31,3.68-.79.28,1.31-3.68.79.9,4.21,4.62-1,.28,1.31-5.94,1.27-2.46-11.45Z"/><path class="cls-2" d="M165.61,74.4c.33,1.86-1,3.16-2.94,3.5l-2.52.44-.23-1.3,2.52-.44s1.94-.36,1.65-1.93c-.35-1.91-5.91-2.14-6.38-4.81-.33-1.88,1-3.16,2.94-3.49l2.5-.44.23,1.32-2.5.44s-1.94.34-1.67,1.91C159.55,71.5,165.15,71.78,165.61,74.4Z"/><path class="cls-2" d="M169.2,76.83l-1.7-11.58,1.34-.2,1.7,11.58Z"/><path class="cls-2" d="M177.7,75.71a3.43,3.43,0,0,1-3.88-3.07l-.55-4.69a3.42,3.42,0,0,1,3.07-3.86,3.24,3.24,0,0,1,3.83,2.8l-1.35.16a1.93,1.93,0,0,0-2.33-1.63,2.1,2.1,0,0,0-1.88,2.38l.55,4.69a2.11,2.11,0,0,0,2.38,1.9,2.06,2.06,0,0,0,1.88-2.4l-.14-1.21-1.86.22-.15-1.33,3.2-.37.7,6-.53.06L179.35,74C179.22,74.41,178.87,75.57,177.7,75.71Z"/><path class="cls-2" d="M191,62.73l.91,11.67-1.44.11-4.88-8.59.69,8.91-1.35.11L184,63.27l1.44-.11,4.87,8.47-.68-8.79Z"/><path class="cls-2" d="M241,69a3.25,3.25,0,0,1,1.4,3,3.3,3.3,0,0,1-3.6,3l-3.67-.34L236.15,63l3.4.31A3,3,0,0,1,241,69Zm0,2.88a2,2,0,0,0-1.77-2.13l-2.32-.21-.36,3.91,2.32.21A2,2,0,0,0,241,71.92Zm-3.63-7.42L237,68.23l2.05.19a1.87,1.87,0,0,0,.34-3.73Z"/><path class="cls-2" d="M253.58,65l-1.06,8.12a3.5,3.5,0,1,1-6.95-.9l1.05-8.12,1.35.17-1.06,8.12a2.15,2.15,0,1,0,4.26.55l1.06-8.12Z"/><path class="cls-2" d="M255.86,77.18l1.85-11.56,1.34.21-1.85,11.56Z"/><path class="cls-2" d="M264.58,66.79,262.67,77l3.9.73L266.32,79l-5.23-1,2.15-11.51Z"/><path class="cls-2" d="M278,73.2l-1.05,4.6a3.43,3.43,0,0,1-4.19,2.63l-3.41-.78,2.61-11.41,3.41.78S278.74,69.81,278,73.2Zm-1.32-.3A2.1,2.1,0,0,0,275,70.33l-2.09-.48-2,8.8,2.09.48a2.11,2.11,0,0,0,2.57-1.63Z"/><path class="cls-2" d="M218,64.24l-4.77-1.94h.91v-2.4a.34.34,0,0,0-.34-.34h-1.72V5.5h-.5V59.57H210a.34.34,0,0,0-.34.34v2.4h.91l-4.83,1.94a.34.34,0,0,0-.17.48l6,11.17a.34.34,0,0,0,.6,0l6-11.18A.34.34,0,0,0,218,64.24Zm-1.07.92-3.6,7a.34.34,0,0,1-.3.18h-2.32a.34.34,0,0,1-.3-.18l-3.63-7a.34.34,0,0,1,.17-.47l4.25-1.76a.34.34,0,0,0,.21-.31V61.39h-.91v-.91h2.74v.91h-.91v1.22a.34.34,0,0,0,.21.31l4.23,1.76A.34.34,0,0,1,217,65.16Z"/></svg>